<?xml version="1.0" encoding="UTF-8"?>
<svg id="_图层_1" data-name="图层 1" xmlns="http://www.w3.org/2000/svg" viewBox="0 0 20.69 20.7">
  <path d="M2.53,6.98h.05l.05,.05,.14-.05c.16,.06,.23,.12,.23,.19s-.02,.11-.05,.14v.33l.09,.38c0,.09-.02,.2-.05,.33v.05l-.05,.14,.05,.23v.75l-.09,.28v.19s-.03,.05-.09,.05c-.22-.06-.33-.22-.33-.47-.06-.03-.09-.08-.09-.14v-.05s.05-.06,.05-.09l-.05-.14v-.09c.06-.06,.09-.14,.09-.23v-1.78l.05-.05Zm1.64-3l.33,.09,.23-.05c.09,0,.19,.11,.28,.33,0,.16,.03,.23,.09,.23s.16-.08,.28-.23h.05c.06,.06,.09,.12,.09,.19v.19c0,.06-.06,.17-.19,.33-.03,0-.08,.12-.14,.38,0,.03,.02,.05,.05,.05v.05c.06-.03,.17-.06,.33-.09,.09-.09,.19-.14,.28-.14h.05c.06,0,.16,.06,.28,.19,.25,0,.39,.05,.42,.14v.05c0,.12-.09,.25-.28,.38l-.09,.09v.05s.12,.08,.28,.14c.16,.12,.31,.19,.47,.19,.06,.06,.09,.12,.09,.19v.05c0,.09-.14,.27-.42,.52,0,.06-.11,.14-.33,.23l-.05,.14c0,.09,.14,.17,.42,.23l.19-.05h.05c.28,.09,.47,.16,.56,.19,.06,.09,.11,.17,.14,.23v.23l.05,.23v.05l-.05,.23,.05,.14c-.09,.22-.19,.33-.28,.33h-.05c-.12,0-.25-.12-.38-.38-.03,0-.08-.16-.14-.47,0-.03-.06-.11-.19-.23,0-.06-.03-.11-.09-.14-.19,.09-.28,.19-.28,.28v.19l.05,.42v.23l-.05,.33v.28l-.05,.09h-.05c-.09-.09-.25-.17-.47-.23h-.23l-.23-.09h-.05c-.06,0-.14,.08-.23,.23l-.28,.09-.33,.14c-.09-.06-.19-.11-.28-.14-.12-.03-.19-.17-.19-.42l-.09-.14v-.09c.09-.09,.17-.16,.23-.19l.23,.09c.12,0,.34-.14,.66-.42,.03,0,.17-.11,.42-.33,.34-.16,.52-.3,.52-.42v-.19c0-.09-.03-.14-.09-.14l-.38,.23c-.06,0-.27,.11-.61,.33l-.14,.05h-.05c-.12,0-.25-.19-.38-.56,.12-.28,.28-.45,.47-.52l.66-1.03,.33-.33,.05-.09c-.03-.06-.08-.09-.14-.09h-.61c-.06,0-.09,.08-.09,.23-.22,.22-.39,.34-.52,.38-.06,.06-.12,.09-.19,.09-.31-.09-.47-.27-.47-.52-.03-.03-.06-.12-.09-.28-.03,0-.08-.14-.14-.42-.03-.12-.12-.27-.28-.42l.09-.09c.06,0,.17,.08,.33,.23,.19,0,.31,.14,.38,.42,.03,.09,.08,.16,.14,.19,.09,0,.23-.11,.42-.33,.06,0,.11-.06,.14-.19v-.33c0-.06-.08-.19-.23-.38,0-.09-.12-.16-.38-.19l-.09-.09c0-.06,.06-.11,.19-.14ZM6.38,.56h.19c.09,.06,.16,.09,.19,.09h.23c.16,0,.23,.08,.23,.23l-.14,.56v.19c0,.09,.09,.17,.28,.23l.05,.05c0,.22-.06,.33-.19,.33-.25,.09-.41,.16-.47,.19-.06,.12-.14,.3-.23,.52-.09,0-.17,.12-.23,.38-.12,.12-.19,.25-.19,.38-.22,.25-.34,.38-.38,.38h-.05c-.06-.03-.09-.08-.09-.14,.09-.19,.23-.48,.42-.89l.05-.09v-.09s-.06-.06-.09-.09c-.06,0-.22,.09-.47,.28-.09,0-.22,.06-.38,.19l-.14,.09h-.05l-.19-.09-.52,.28c-.22,0-.39-.12-.52-.38l.05-.09c-.06-.12-.09-.2-.09-.23,0-.12,.08-.22,.23-.28h.09c.19-.06,.28-.16,.28-.28v-.42c.09-.31,.17-.47,.23-.47h.05c.16,.09,.23,.22,.23,.38,0,.22,.08,.39,.23,.52,0,.09,.03,.16,.09,.19l.23-.05,.14,.05h.05c.19-.16,.39-.23,.61-.23,.12-.09,.19-.19,.19-.28v-.33l-.05-.47v-.28c0-.12,.03-.22,.09-.28Zm-1.17,6.8v.05s.03,.06,.09,.09c0-.03,.11-.09,.33-.19,.19-.12,.28-.23,.28-.33,0-.22,.06-.41,.19-.56,.03,0,.05-.03,.05-.09h-.05c-.06,0-.2,.12-.42,.38l-.38,.42c-.06,.06-.09,.14-.09,.23Zm.61,1.59l-.09,.19c0,.06,.02,.09,.05,.09h.05c.06-.03,.09-.08,.09-.14v-.14h-.09ZM7.88,3.47h.05c.06,0,.19,.08,.38,.23l.14-.05c.06,0,.19,.12,.38,.38,.06,.16,.09,.34,.09,.56,.03,.03,.05,.08,.05,.14v.14c.06,.25,.09,.45,.09,.61v.19c.06,.12,.09,.22,.09,.28v1.36l.09,.23-.09,.23c.06,.06,.12,.22,.19,.47l-.05,.19c.06,.16,.09,.25,.09,.28v.47l.09,.42v.23c0,.09,.05,.19,.14,.28v.33c-.06,.03-.09,.12-.09,.28-.09,.06-.14,.25-.14,.56l-.05,.05h-.14s-.06-.09-.09-.28c-.22-.16-.38-.31-.47-.47-.19-.19-.3-.36-.33-.52-.09-.09-.2-.23-.33-.42-.06-.06-.09-.12-.09-.19,.03-.12,.08-.19,.14-.19,.09,.19,.3,.31,.61,.38l.09-.09-.09-.23v-.33l.05-.28-.09-.28v-.84l-.05-.19v-.09c-.09-.22-.14-.36-.14-.42v-1.45c0-.09-.05-.3-.14-.61,0-.09-.03-.2-.09-.33l.05-.38c-.06-.09-.14-.14-.23-.14-.25,.19-.38,.36-.38,.52l-.05,.28c-.03,.12-.08,.19-.14,.19-.22-.09-.36-.2-.42-.33-.12-.09-.19-.22-.19-.38-.06-.06-.11-.19-.14-.38-.09-.12-.19-.19-.28-.19-.03,0-.05-.03-.05-.09l.05-.05h.05l.33,.14,.23,.09h.05l.28,.09s.17-.12,.42-.38l.14-.05Z"/>
  <path d="M10.15,10.66c.11,0,.2,.32,.28,.95v.56l.06,.39s-.09,.11-.28,.22c0,.08-.06,.15-.17,.22h-.06c-.08-.04-.19-.19-.33-.45v-.78l.06-.06v-.28c0-.22,.11-.48,.33-.78h.11Zm5.86-3.68v.06c-.08,.11-.28,.17-.61,.17-.22,.08-.33,.13-.33,.17v.06h-.11c-.07-.07-.13-.11-.17-.11-.11,.08-.17,.21-.17,.39v1.12c0,.11-.02,.24-.06,.39v.33l-.06,.61c0,.11,.04,.19,.11,.22l1-.22h.06c.63,.11,1.04,.22,1.23,.33,.07,0,.24,.17,.5,.5v.45c-.15,.15-.28,.22-.39,.22l-.39-.17-.28,.06h-.33c-.33,0-.65,.08-.95,.22l-.39,.06-.06-.06v-.06l.89-.45c.19-.15,.39-.26,.61-.33l.06-.06c0-.07-.09-.15-.28-.22l-.33,.06h-.17c-.15,.07-.37,.15-.67,.22-.19,0-.28,.08-.28,.22-.07,.19-.13,.28-.17,.28-.08,0-.13-.09-.17-.28l-.11-.06c-.33,.11-.6,.17-.78,.17-.04,.04-.26,.11-.67,.22l-.39,.17-.28-.06c-.19,.04-.39,.11-.61,.22-.3-.11-.47-.2-.5-.28-.19-.26-.28-.43-.28-.5l.06-.06h.33c.97-.11,1.45-.2,1.45-.28,.07-.04,.11-.11,.11-.22-.11-.48-.17-.84-.17-1.06,0-.15,.04-.56,.11-1.23l-.11-.06h-.11c-.41,.15-.65,.22-.73,.22h-.06c-.48-.04-.8-.19-.95-.45l-.11-.22,.06-.11h.22c.41-.04,1.02-.15,1.84-.33,.48,0,.99-.09,1.51-.28,.19,0,.35-.06,.5-.17l1-.22c.07,0,.26,.13,.56,.39Zm-1.06,5.08h.17c.07,0,.11,.06,.11,.17v.11c-.04,.22-.11,.33-.22,.33l-.39-.11c-.15,.08-.33,.11-.56,.11-.04,.07-.06,.13-.06,.17s.13,.2,.39,.5l.22,.73c-.04,.48-.13,.73-.28,.73-.11,.11-.28,.19-.5,.22-.11,.11-.37,.2-.78,.28-.11,.11-.21,.17-.28,.17l-.28-.06-.11,.06v-.06c0-.11,.19-.32,.56-.61,.11,0,.22-.13,.33-.39,.22-.3,.35-.5,.39-.61l-.11-.84s-.04-.06-.11-.06c-.3,.07-.58,.11-.84,.11l-.78,.06-.06,.06c-.11-.04-.17-.09-.17-.17v-.06c0-.07,.32-.2,.95-.39,.15,0,.46-.06,.95-.17l1.45-.28Zm-2.18-3.07v.39l.06,.06h.06c0-.15,.09-.33,.28-.56,.26-.45,.41-.76,.45-.95,.11-.15,.17-.26,.17-.33-.45,0-.71,.09-.78,.28l-.17,.56-.06,.56Zm.22,1.51c0,.07,.06,.11,.17,.11,.22,0,.33-.06,.33-.17,0-.04-.11-.15-.33-.33h-.06c-.08,.04-.11,.17-.11,.39Zm.22-5.08l.17,.06s.11-.06,.22-.06l.06,.06h.06c.3,0,.5,.15,.61,.45v.28c0,.15-.09,.24-.28,.28-.22,0-.47-.15-.73-.45-.19-.26-.28-.41-.28-.45,0-.07,.06-.13,.17-.17Zm.11,4.24c0,.22,.15,.47,.45,.73l.28,.11s.07-.04,.11-.11c-.04-.3-.09-.45-.17-.45v.06h-.17c-.15-.04-.22-.07-.22-.11v-.06c.15-.15,.22-.26,.22-.33-.04-.11-.13-.17-.28-.17-.15,.08-.22,.19-.22,.33Zm.22-.89c0,.15,.17,.22,.5,.22l.11-.11v-.45l.06-.39v-.17s-.02-.07-.06-.11h-.06c-.37,.48-.56,.82-.56,1Z"/>
</svg>